<?xml version="1.0" encoding="utf-8"?>
<!DOCTYPE svg PUBLIC "-//W3C//DTD SVG 1.1//EN" "http://www.w3.org/Graphics/SVG/1.1/DTD/svg11.dtd">
<svg version="1.1" id="Layer_1" xmlns="http://www.w3.org/2000/svg" xmlns:xlink="http://www.w3.org/1999/xlink" x="0px" y="0px"
	 width="55px" height="55px" viewBox="0 0 55 55" style="enable-background:new 0 0 55 55;" xml:space="preserve">
<g>
	<path d="M37.785,22.769c0,1.46-0.221,2.658-0.662,3.596l-7.312,15.549c-0.215,0.441-0.533,0.791-0.955,1.045
		S27.982,43.34,27.5,43.34s-0.934-0.127-1.355-0.381s-0.734-0.604-0.936-1.045l-7.332-15.549c-0.441-0.938-0.662-2.136-0.662-3.596
		c0-2.839,1.004-5.264,3.014-7.272c2.008-2.009,4.432-3.014,7.271-3.014s5.264,1.005,7.271,3.014
		C36.781,17.505,37.785,19.93,37.785,22.769z M31.137,26.405c1.004-1.004,1.506-2.216,1.506-3.636s-0.502-2.632-1.506-3.636
		c-1.006-1.005-2.217-1.507-3.637-1.507s-2.631,0.502-3.637,1.507c-1.004,1.004-1.506,2.216-1.506,3.636s0.502,2.632,1.506,3.636
		c1.006,1.005,2.217,1.507,3.637,1.507S30.131,27.41,31.137,26.405z"/>
</g>
</svg>
