<?xml version="1.0" encoding="utf-8"?>
<!DOCTYPE svg PUBLIC "-//W3C//DTD SVG 1.1//EN" "http://www.w3.org/Graphics/SVG/1.1/DTD/svg11.dtd">
<svg version="1.1" id="Layer_1" xmlns="http://www.w3.org/2000/svg" xmlns:xlink="http://www.w3.org/1999/xlink" x="0px" y="0px"
	 width="55px" height="55px" viewBox="0 0 55 55" style="enable-background:new 0 0 55 55;" xml:space="preserve">
<g>
	<path d="M44.215,15.697v24.428c0,0.885-0.316,1.641-0.945,2.27c-0.629,0.631-1.385,0.945-2.27,0.945H14
		c-0.885,0-1.641-0.314-2.27-0.945c-0.631-0.629-0.945-1.385-0.945-2.27V15.697c0-0.884,0.314-1.641,0.945-2.271
		c0.629-0.629,1.385-0.944,2.27-0.944h27c0.885,0,1.641,0.315,2.27,0.944C43.898,14.056,44.215,14.813,44.215,15.697z M14,40.768
		h12.215V17.625H13.357v22.5c0,0.174,0.062,0.324,0.191,0.453C13.676,40.705,13.826,40.768,14,40.768z M41.643,40.125v-22.5H28.785
		v23.142H41c0.174,0,0.324-0.062,0.451-0.189C41.578,40.449,41.643,40.299,41.643,40.125z"/>
</g>
</svg>
