<?xml version="1.0" encoding="utf-8"?>
<!DOCTYPE svg PUBLIC "-//W3C//DTD SVG 1.1//EN" "http://www.w3.org/Graphics/SVG/1.1/DTD/svg11.dtd">
<svg version="1.1" id="Layer_1" xmlns="http://www.w3.org/2000/svg" xmlns:xlink="http://www.w3.org/1999/xlink" x="0px" y="0px"
	 width="55px" height="55px" viewBox="0 0 55 55" style="enable-background:new 0 0 55 55;" xml:space="preserve">
<g>
	<path d="M41.562,37.735c0,1.566-0.529,2.879-1.587,3.938c-1.058,1.058-2.37,1.587-3.938,1.587c-1.808,0-3.382-0.67-4.721-2.009
		l-15.609-15.59c-1.514-1.54-2.271-3.354-2.271-5.444c0-2.129,0.736-3.938,2.21-5.424s3.274-2.229,5.404-2.229
		c2.116,0,3.944,0.757,5.484,2.27L38.69,27.008c0.134,0.134,0.2,0.281,0.2,0.441c0,0.215-0.204,0.526-0.612,0.935
		c-0.409,0.408-0.72,0.612-0.935,0.612c-0.174,0-0.328-0.066-0.462-0.201L24.708,16.602c-1.059-1.031-2.271-1.547-3.637-1.547
		c-1.419,0-2.618,0.502-3.596,1.506c-0.978,1.005-1.467,2.217-1.467,3.637c0,1.406,0.509,2.618,1.527,3.636l15.589,15.609
		c0.844,0.844,1.814,1.266,2.913,1.266c0.857,0,1.567-0.281,2.13-0.844s0.844-1.271,0.844-2.129c0-1.099-0.422-2.069-1.266-2.913
		L26.074,23.15c-0.349-0.321-0.75-0.482-1.206-0.482c-0.388,0-0.71,0.128-0.964,0.382c-0.255,0.255-0.382,0.576-0.382,0.964
		c0,0.429,0.167,0.824,0.502,1.186l8.237,8.236c0.134,0.135,0.2,0.281,0.2,0.442c0,0.215-0.207,0.529-0.622,0.944
		c-0.416,0.415-0.73,0.623-0.944,0.623c-0.161,0-0.309-0.067-0.442-0.201l-8.236-8.236c-0.844-0.817-1.266-1.815-1.266-2.994
		c0-1.098,0.382-2.028,1.146-2.792c0.763-0.764,1.693-1.146,2.792-1.146c1.179,0,2.176,0.422,2.993,1.266l11.672,11.672
		C40.893,34.327,41.562,35.9,41.562,37.735z"/>
</g>
</svg>
