<?xml version="1.0" encoding="utf-8"?>
<!DOCTYPE svg PUBLIC "-//W3C//DTD SVG 1.1//EN" "http://www.w3.org/Graphics/SVG/1.1/DTD/svg11.dtd">
<svg version="1.1" id="Layer_1" xmlns="http://www.w3.org/2000/svg" xmlns:xlink="http://www.w3.org/1999/xlink" x="0px" y="0px"
	 width="55px" height="55px" viewBox="0 0 55 55" style="enable-background:new 0 0 55 55;" xml:space="preserve">
<g>
	<path d="M45.5,13.769v5.143c0,0.349-0.127,0.65-0.382,0.904c-0.255,0.255-0.556,0.382-0.904,0.382H10.786
		c-0.349,0-0.65-0.127-0.904-0.382C9.627,19.562,9.5,19.26,9.5,18.911v-5.143c0-0.348,0.127-0.649,0.382-0.904
		c0.254-0.254,0.556-0.382,0.904-0.382h33.428c0.349,0,0.649,0.128,0.904,0.382C45.373,13.119,45.5,13.421,45.5,13.769z
		 M45.5,24.055v5.143c0,0.349-0.127,0.649-0.382,0.904c-0.255,0.254-0.556,0.381-0.904,0.381H10.786
		c-0.349,0-0.65-0.127-0.904-0.381C9.627,29.847,9.5,29.546,9.5,29.197v-5.143c0-0.349,0.127-0.649,0.382-0.904
		c0.254-0.255,0.556-0.382,0.904-0.382h33.428c0.349,0,0.649,0.127,0.904,0.382S45.5,23.706,45.5,24.055z M45.5,34.34v5.143
		c0,0.349-0.127,0.65-0.382,0.904c-0.255,0.255-0.556,0.382-0.904,0.382H10.786c-0.349,0-0.65-0.127-0.904-0.382
		C9.627,40.133,9.5,39.831,9.5,39.482V34.34c0-0.348,0.127-0.649,0.382-0.904c0.254-0.254,0.556-0.381,0.904-0.381h33.428
		c0.349,0,0.649,0.127,0.904,0.381C45.373,33.69,45.5,33.992,45.5,34.34z M12.069,27.911h30.859V25.34H12.069V27.911z
		 M12.069,38.197h30.859v-2.571H12.069V38.197z M12.069,17.626h30.859v-2.571H12.069V17.626z"/>
</g>
</svg>
