<?xml version="1.0" encoding="utf-8"?>
<!DOCTYPE svg PUBLIC "-//W3C//DTD SVG 1.1//EN" "http://www.w3.org/Graphics/SVG/1.1/DTD/svg11.dtd">
<svg version="1.1" id="Layer_1" xmlns="http://www.w3.org/2000/svg" xmlns:xlink="http://www.w3.org/1999/xlink" x="0px" y="0px"
	 width="55px" height="55px" viewBox="0 0 55 55" style="enable-background:new 0 0 55 55;" xml:space="preserve">
<g>
	<path d="M19.786,14.411v3.857c0,0.536-0.188,0.991-0.562,1.366c-0.376,0.375-0.831,0.562-1.366,0.562h-6.429
		c-0.536,0-0.991-0.188-1.366-0.562S9.5,18.805,9.5,18.269v-3.857c0-0.535,0.188-0.99,0.562-1.366
		c0.375-0.374,0.83-0.562,1.366-0.562h6.429c0.535,0,0.99,0.188,1.366,0.562C19.598,13.421,19.786,13.876,19.786,14.411z
		 M19.786,24.697v3.857c0,0.535-0.188,0.991-0.562,1.365c-0.376,0.376-0.831,0.562-1.366,0.562h-6.429
		c-0.536,0-0.991-0.187-1.366-0.562C9.688,29.546,9.5,29.09,9.5,28.555v-3.857c0-0.536,0.188-0.991,0.562-1.366
		s0.83-0.562,1.366-0.562h6.429c0.535,0,0.99,0.188,1.366,0.562C19.598,23.706,19.786,24.161,19.786,24.697z M19.786,34.982v3.857
		c0,0.536-0.188,0.991-0.562,1.366c-0.376,0.375-0.831,0.562-1.366,0.562h-6.429c-0.536,0-0.991-0.188-1.366-0.562
		S9.5,39.376,9.5,38.84v-3.857c0-0.535,0.188-0.99,0.562-1.365s0.83-0.562,1.366-0.562h6.429c0.535,0,0.99,0.188,1.366,0.562
		C19.598,33.992,19.786,34.447,19.786,34.982z M32.643,14.411v3.857c0,0.536-0.188,0.991-0.562,1.366s-0.83,0.562-1.366,0.562
		h-6.428c-0.536,0-0.991-0.188-1.366-0.562s-0.562-0.83-0.562-1.366v-3.857c0-0.535,0.188-0.99,0.562-1.366
		c0.375-0.374,0.83-0.562,1.366-0.562h6.428c0.536,0,0.991,0.188,1.366,0.562C32.455,13.421,32.643,13.876,32.643,14.411z
		 M32.643,24.697v3.857c0,0.535-0.188,0.991-0.562,1.365c-0.375,0.376-0.83,0.562-1.366,0.562h-6.428
		c-0.536,0-0.991-0.187-1.366-0.562c-0.375-0.374-0.562-0.83-0.562-1.365v-3.857c0-0.536,0.188-0.991,0.562-1.366
		s0.83-0.562,1.366-0.562h6.428c0.536,0,0.991,0.188,1.366,0.562S32.643,24.161,32.643,24.697z M32.643,34.982v3.857
		c0,0.536-0.188,0.991-0.562,1.366s-0.83,0.562-1.366,0.562h-6.428c-0.536,0-0.991-0.188-1.366-0.562s-0.562-0.83-0.562-1.366
		v-3.857c0-0.535,0.188-0.99,0.562-1.365s0.83-0.562,1.366-0.562h6.428c0.536,0,0.991,0.188,1.366,0.562
		S32.643,34.447,32.643,34.982z M45.5,14.411v3.857c0,0.536-0.188,0.991-0.562,1.366s-0.83,0.562-1.366,0.562h-6.429
		c-0.535,0-0.991-0.188-1.366-0.562s-0.562-0.83-0.562-1.366v-3.857c0-0.535,0.188-0.99,0.562-1.366
		c0.375-0.374,0.831-0.562,1.366-0.562h6.429c0.536,0,0.991,0.188,1.366,0.562C45.312,13.421,45.5,13.876,45.5,14.411z M45.5,24.697
		v3.857c0,0.535-0.188,0.991-0.562,1.365c-0.375,0.376-0.83,0.562-1.366,0.562h-6.429c-0.535,0-0.991-0.187-1.366-0.562
		c-0.375-0.374-0.562-0.83-0.562-1.365v-3.857c0-0.536,0.188-0.991,0.562-1.366s0.831-0.562,1.366-0.562h6.429
		c0.536,0,0.991,0.188,1.366,0.562S45.5,24.161,45.5,24.697z M45.5,34.982v3.857c0,0.536-0.188,0.991-0.562,1.366
		s-0.83,0.562-1.366,0.562h-6.429c-0.535,0-0.991-0.188-1.366-0.562s-0.562-0.83-0.562-1.366v-3.857c0-0.535,0.188-0.99,0.562-1.365
		s0.831-0.562,1.366-0.562h6.429c0.536,0,0.991,0.188,1.366,0.562S45.5,34.447,45.5,34.982z"/>
</g>
</svg>
