<?xml version="1.0" encoding="utf-8"?>
<!DOCTYPE svg PUBLIC "-//W3C//DTD SVG 1.1//EN" "http://www.w3.org/Graphics/SVG/1.1/DTD/svg11.dtd">
<svg version="1.1" id="Layer_1" xmlns="http://www.w3.org/2000/svg" xmlns:xlink="http://www.w3.org/1999/xlink" x="0px" y="0px"
	 width="55px" height="55px" viewBox="0 0 55 55" style="enable-background:new 0 0 55 55;" xml:space="preserve">
<g>
	<path d="M20,13.929v3.857c0,0.536-0.045,1.134-0.42,1.509S18.893,20,18.357,20h-6.429c-0.536,0-0.991-0.33-1.366-0.705
		S10,18.322,10,17.786v-3.857c0-0.535,0.188-0.99,0.562-1.366C10.938,12.188,11.393,12,11.929,12h6.429
		c0.535,0,0.848,0.188,1.223,0.562C19.955,12.938,20,13.394,20,13.929z M20,24.215v3.857c0,0.535-0.045,0.991-0.42,1.365
		C19.205,29.813,18.893,30,18.357,30h-6.429c-0.536,0-0.991-0.187-1.366-0.562C10.188,29.063,10,28.607,10,28.072v-3.857
		c0-0.536,0.188-1.134,0.562-1.509S11.393,22,11.929,22h6.429c0.535,0,0.848,0.331,1.223,0.706S20,23.679,20,24.215z M20,34.5v3.857
		c0,0.536-0.045,0.848-0.42,1.223S18.893,40,18.357,40h-6.429c-0.536,0-0.991-0.045-1.366-0.42S10,38.894,10,38.357V34.5
		c0-0.535,0.188-0.776,0.562-1.151S11.393,33,11.929,33h6.429c0.535,0,0.848-0.026,1.223,0.349S20,33.965,20,34.5z M33,13.929v3.857
		c0,0.536-0.116,1.134-0.491,1.509S31.75,20,31.214,20h-6.428c-0.536,0-0.92-0.33-1.295-0.705S23,18.322,23,17.786v-3.857
		c0-0.535,0.116-0.99,0.491-1.366C23.866,12.188,24.25,12,24.786,12h6.428c0.536,0,0.92,0.188,1.295,0.562
		C32.884,12.938,33,13.394,33,13.929z M33,24.215v3.857c0,0.535-0.116,0.991-0.491,1.365C32.134,29.813,31.75,30,31.214,30h-6.428
		c-0.536,0-0.92-0.187-1.295-0.562C23.116,29.063,23,28.607,23,28.072v-3.857c0-0.536,0.116-1.134,0.491-1.509S24.25,22,24.786,22
		h6.428c0.536,0,0.92,0.331,1.295,0.706S33,23.679,33,24.215z M33,34.5v3.857c0,0.536-0.116,0.848-0.491,1.223S31.75,40,31.214,40
		h-6.428c-0.536,0-0.92-0.045-1.295-0.42S23,38.894,23,38.357V34.5c0-0.535,0.116-0.776,0.491-1.151S24.25,33,24.786,33h6.428
		c0.536,0,0.92-0.026,1.295,0.349S33,33.965,33,34.5z M46,13.929v3.857c0,0.536-0.188,1.134-0.562,1.509S44.607,20,44.071,20h-6.429
		c-0.535,0-0.848-0.33-1.223-0.705S36,18.322,36,17.786v-3.857c0-0.535,0.045-0.99,0.42-1.366C36.795,12.188,37.107,12,37.643,12
		h6.429c0.536,0,0.991,0.188,1.366,0.562C45.812,12.938,46,13.394,46,13.929z M46,24.215v3.857c0,0.535-0.188,0.991-0.562,1.365
		C45.062,29.813,44.607,30,44.071,30h-6.429c-0.535,0-0.848-0.187-1.223-0.562c-0.375-0.374-0.42-0.83-0.42-1.365v-3.857
		c0-0.536,0.045-1.134,0.42-1.509S37.107,22,37.643,22h6.429c0.536,0,0.991,0.331,1.366,0.706S46,23.679,46,24.215z M46,34.5v3.857
		c0,0.536-0.188,0.848-0.562,1.223S44.607,40,44.071,40h-6.429c-0.535,0-0.848-0.045-1.223-0.42S36,38.894,36,38.357V34.5
		c0-0.535,0.045-0.776,0.42-1.151S37.107,33,37.643,33h6.429c0.536,0,0.991-0.026,1.366,0.349S46,33.965,46,34.5z"/>
</g>
</svg>
