<?xml version="1.0" encoding="utf-8"?>
<!DOCTYPE svg PUBLIC "-//W3C//DTD SVG 1.1//EN" "http://www.w3.org/Graphics/SVG/1.1/DTD/svg11.dtd">
<svg version="1.1" id="Layer_1" xmlns="http://www.w3.org/2000/svg" xmlns:xlink="http://www.w3.org/1999/xlink" x="0px" y="0px"
	 width="55px" height="55px" viewBox="0 0 55 55" style="enable-background:new 0 0 55 55;" xml:space="preserve">
<g>
	<path d="M10.922,43.071H10.5l0.04-1.587c0.295-0.094,0.83-0.215,1.607-0.361c1.191-0.215,1.929-0.422,2.21-0.623
		c0.268-0.214,0.589-0.67,0.964-1.366l4.762-12.375l5.625-14.544h1.506h1.065l0.221,0.422l4.118,9.643
		c1.38,3.242,2.21,5.23,2.491,5.967c0.522,1.365,1.165,2.939,1.929,4.721c0.348,0.776,0.783,1.875,1.306,3.294
		c0.321,0.897,0.757,1.896,1.306,2.994c0.295,0.656,0.529,1.038,0.703,1.145c0.295,0.255,0.757,0.408,1.387,0.462
		c0.629,0.081,1.318,0.262,2.068,0.543c0.081,0.522,0.121,0.903,0.121,1.145c0,0.188-0.007,0.362-0.021,0.522
		c-1.071,0-2.357-0.054-3.856-0.16c-1.246-0.107-2.512-0.161-3.797-0.161c-1.059,0-1.963,0.014-2.713,0.04l-4.018,0.221
		l-1.165,0.041c0-0.604,0.026-1.125,0.08-1.567l2.632-0.562c0.75-0.174,1.205-0.328,1.366-0.462
		c0.161-0.161,0.241-0.342,0.241-0.543c0-0.2-0.04-0.415-0.121-0.643l-0.943-2.29l-1.849-4.58l-9.04-0.04
		c-0.389,0.87-1.085,2.705-2.09,5.504c-0.308,0.857-0.462,1.42-0.462,1.688c0,0.415,0.114,0.703,0.342,0.864
		c0.348,0.281,1.038,0.495,2.069,0.643c0.04,0,0.131,0.014,0.271,0.04s0.341,0.061,0.603,0.101c0.261,0.04,0.532,0.08,0.813,0.12
		c0.013,0.375,0.02,0.764,0.02,1.166c0,0.228-0.013,0.408-0.04,0.542c-0.884,0-3.221-0.134-7.011-0.401l-0.965,0.16
		C13.192,42.978,12.073,43.071,10.922,43.071z M25.064,20.873l-3.415,9.041c0.978,0.013,2.006,0.026,3.084,0.04
		s1.875,0.023,2.391,0.03s0.867,0.01,1.055,0.01l0.582-0.04c-0.429-1.272-1.044-2.886-1.848-4.841
		C26.203,23.344,25.587,21.931,25.064,20.873z"/>
</g>
</svg>
