<?xml version="1.0" encoding="utf-8"?>
<!DOCTYPE svg PUBLIC "-//W3C//DTD SVG 1.1//EN" "http://www.w3.org/Graphics/SVG/1.1/DTD/svg11.dtd">
<svg version="1.1" id="Layer_1" xmlns="http://www.w3.org/2000/svg" xmlns:xlink="http://www.w3.org/1999/xlink" x="0px" y="0px"
	 width="55px" height="55px" viewBox="0 0 55 55" style="enable-background:new 0 0 55 55;" xml:space="preserve">
<g>
	<path d="M10.922,43H10.5l0.04-1.588c0.295-0.094,0.83-0.215,1.607-0.361c1.191-0.215,1.929-0.422,2.21-0.623
		c0.268-0.213,0.589-0.67,0.964-1.365l4.762-12.375l5.625-14.545h1.506h1.065l0.221,0.422l4.118,9.643
		c1.38,3.242,2.21,5.23,2.491,5.967c0.522,1.365,1.165,2.939,1.929,4.721c0.348,0.777,0.783,1.875,1.306,3.295
		c0.321,0.896,0.757,1.895,1.306,2.994c0.295,0.656,0.529,1.037,0.703,1.145c0.295,0.254,0.757,0.408,1.387,0.461
		c0.629,0.082,1.318,0.262,2.068,0.543c0.081,0.523,0.121,0.904,0.121,1.145c0,0.188-0.007,0.363-0.021,0.523
		c-1.071,0-2.357-0.055-3.856-0.16c-1.246-0.107-2.512-0.162-3.797-0.162c-1.059,0-1.963,0.014-2.713,0.041l-4.018,0.221
		l-1.165,0.041c0-0.604,0.026-1.125,0.08-1.568l2.632-0.562c0.75-0.174,1.205-0.328,1.366-0.461
		c0.161-0.162,0.241-0.342,0.241-0.543s-0.04-0.416-0.121-0.643l-0.943-2.291l-1.849-4.58l-9.04-0.039
		c-0.389,0.869-1.085,2.705-2.09,5.504c-0.308,0.857-0.462,1.42-0.462,1.688c0,0.414,0.114,0.703,0.342,0.863
		c0.348,0.281,1.038,0.496,2.069,0.643c0.04,0,0.131,0.014,0.271,0.041c0.141,0.025,0.341,0.061,0.603,0.1
		c0.261,0.041,0.532,0.08,0.813,0.121c0.013,0.375,0.02,0.764,0.02,1.166c0,0.227-0.013,0.408-0.04,0.541
		c-0.884,0-3.221-0.133-7.011-0.4l-0.965,0.16C13.192,42.906,12.073,43,10.922,43z M25.064,20.801l-3.415,9.041
		c0.978,0.012,2.006,0.025,3.084,0.039s1.875,0.023,2.391,0.031c0.516,0.006,0.867,0.01,1.055,0.01l0.582-0.041
		c-0.429-1.271-1.044-2.885-1.848-4.841C26.203,23.272,25.587,21.859,25.064,20.801z"/>
</g>
</svg>
