<?xml version="1.0" encoding="utf-8"?>
<!DOCTYPE svg PUBLIC "-//W3C//DTD SVG 1.1//EN" "http://www.w3.org/Graphics/SVG/1.1/DTD/svg11.dtd">
<svg version="1.1" id="Layer_1" xmlns="http://www.w3.org/2000/svg" xmlns:xlink="http://www.w3.org/1999/xlink" x="0px" y="0px"
	 width="55px" height="55px" viewBox="0 0 55 55" style="enable-background:new 0 0 55 55;" xml:space="preserve">
<g>
	<path d="M20.49,36.61l-1.004,1.004c-0.135,0.135-0.289,0.201-0.463,0.201s-0.328-0.066-0.461-0.201l-9.363-9.361
		C9.066,28.119,9,27.965,9,27.791s0.066-0.328,0.199-0.461l9.363-9.362c0.133-0.134,0.287-0.2,0.461-0.2s0.328,0.066,0.463,0.2
		l1.004,1.005c0.135,0.134,0.201,0.288,0.201,0.462c0,0.175-0.066,0.328-0.201,0.462l-7.895,7.895l7.895,7.895
		c0.135,0.135,0.201,0.288,0.201,0.463C20.691,36.322,20.625,36.477,20.49,36.61z M32.363,15.175L24.869,41.11
		c-0.053,0.174-0.156,0.305-0.311,0.392s-0.312,0.104-0.473,0.05l-1.246-0.341c-0.174-0.054-0.305-0.158-0.391-0.312
		c-0.088-0.154-0.104-0.318-0.051-0.492l7.494-25.935c0.053-0.174,0.156-0.305,0.311-0.392s0.312-0.104,0.473-0.051l1.246,0.342
		c0.174,0.054,0.305,0.157,0.391,0.312C32.4,14.837,32.416,15.001,32.363,15.175z M45.562,28.253l-9.363,9.361
		c-0.133,0.135-0.287,0.201-0.461,0.201s-0.328-0.066-0.463-0.201l-1.004-1.004c-0.135-0.134-0.201-0.288-0.201-0.462
		c0-0.175,0.066-0.328,0.201-0.463l7.895-7.895l-7.895-7.895c-0.135-0.134-0.201-0.287-0.201-0.462c0-0.174,0.066-0.328,0.201-0.462
		l1.004-1.005c0.135-0.134,0.289-0.2,0.463-0.2s0.328,0.066,0.461,0.2l9.363,9.362c0.133,0.134,0.199,0.288,0.199,0.461
		S45.695,28.119,45.562,28.253z"/>
</g>
</svg>
