<?xml version="1.0" encoding="utf-8"?>
<!DOCTYPE svg PUBLIC "-//W3C//DTD SVG 1.1//EN" "http://www.w3.org/Graphics/SVG/1.1/DTD/svg11.dtd">
<svg version="1.1" id="Layer_1" xmlns="http://www.w3.org/2000/svg" xmlns:xlink="http://www.w3.org/1999/xlink" x="0px" y="0px"
	 width="55px" height="55px" viewBox="0 0 55 55" style="enable-background:new 0 0 55 55;" xml:space="preserve">
<g>
	<path d="M48,14.215v27c0,0.884-0.529,1.426-1.158,2.055C46.213,43.9,45.24,44,44.357,44H12.213c-0.883,0-1.641-0.1-2.27-0.73
		C9.314,42.641,9,42.099,9,41.215v-27c0-0.884,0.314-1.641,0.943-2.271C10.572,11.315,11.33,11,12.213,11h32.145
		c0.883,0,1.855,0.315,2.484,0.944C47.471,12.574,48,13.331,48,14.215z M17,17.429v-2.571c0-0.348-0.271-0.436-0.524-0.69
		C16.222,13.913,15.775,14,15.428,14h-2.57c-0.35,0-0.436-0.087-0.689,0.167C11.912,14.422,12,14.51,12,14.857v2.571
		c0,0.349-0.088,0.793,0.168,1.047C12.422,18.73,12.508,19,12.857,19h2.57c0.348,0,0.794-0.27,1.048-0.524
		C16.729,18.222,17,17.777,17,17.429z M17,25.144v-2.571c0-0.349-0.271-0.792-0.524-1.047S15.775,21,15.428,21h-2.57
		c-0.35,0-0.436,0.27-0.689,0.525C11.912,21.78,12,22.224,12,22.572v2.571c0,0.348-0.088,0.435,0.168,0.689
		C12.422,26.087,12.508,26,12.857,26h2.57c0.348,0,0.794,0.087,1.048-0.167C16.729,25.579,17,25.491,17,25.144z M17,32.857v-2.571
		c0-0.348-0.271-0.649-0.524-0.904C16.222,29.128,15.775,29,15.428,29h-2.57c-0.35,0-0.436,0.128-0.689,0.382
		C11.912,29.637,12,29.938,12,30.286v2.571c0,0.349-0.088,0.578,0.168,0.832C12.422,33.945,12.508,34,12.857,34h2.57
		c0.348,0,0.794-0.055,1.048-0.311C16.729,33.436,17,33.206,17,32.857z M17,40.572V38c0-0.348-0.271-0.507-0.524-0.761
		C16.222,36.984,15.775,37,15.428,37h-2.57c-0.35,0-0.436-0.016-0.689,0.239C11.912,37.493,12,37.652,12,38v2.572
		c0,0.348-0.088,0.721,0.168,0.975C12.422,41.802,12.508,42,12.857,42h2.57c0.348,0,0.794-0.198,1.048-0.453
		C16.729,41.293,17,40.92,17,40.572z M37,14H19v12h18V14z M37,29H19v13h18V29z M45,17.429v-2.571c0-0.348-0.127-0.436-0.383-0.69
		C44.363,13.913,44.062,14,43.713,14h-2.57c-0.348,0-0.579-0.087-0.833,0.167C40.056,14.422,40,14.51,40,14.857v2.571
		c0,0.349,0.056,0.793,0.31,1.047C40.563,18.73,40.795,19,41.143,19h2.57c0.35,0,0.65-0.27,0.904-0.524
		C44.873,18.222,45,17.777,45,17.429z M45,25.144v-2.571c0-0.349-0.127-0.792-0.383-1.047C44.363,21.27,44.062,21,43.713,21h-2.57
		c-0.348,0-0.579,0.27-0.833,0.525S40,22.224,40,22.572v2.571c0,0.348,0.056,0.435,0.31,0.689C40.563,26.087,40.795,26,41.143,26
		h2.57c0.35,0,0.65,0.087,0.904-0.167C44.873,25.579,45,25.491,45,25.144z M45,32.857v-2.571c0-0.348-0.127-0.649-0.383-0.904
		C44.363,29.128,44.062,29,43.713,29h-2.57c-0.348,0-0.579,0.128-0.833,0.382C40.056,29.637,40,29.938,40,30.286v2.571
		c0,0.349,0.056,0.578,0.31,0.832C40.563,33.945,40.795,34,41.143,34h2.57c0.35,0,0.65-0.055,0.904-0.311
		C44.873,33.436,45,33.206,45,32.857z M45,40.572V38c0-0.348-0.127-0.507-0.383-0.761C44.363,36.984,44.062,37,43.713,37h-2.57
		c-0.348,0-0.579-0.016-0.833,0.239C40.056,37.493,40,37.652,40,38v2.572c0,0.348,0.056,0.721,0.31,0.975
		C40.563,41.802,40.795,42,41.143,42h2.57c0.35,0,0.65-0.198,0.904-0.453C44.873,41.293,45,40.92,45,40.572z"/>
</g>
</svg>
