<?xml version="1.0" encoding="utf-8"?>
<!-- Generator: Adobe Illustrator 16.0.0, SVG Export Plug-In . SVG Version: 6.00 Build 0)  -->
<!DOCTYPE svg PUBLIC "-//W3C//DTD SVG 1.1//EN" "http://www.w3.org/Graphics/SVG/1.1/DTD/svg11.dtd">
<svg version="1.1" id="Layer_1" xmlns="http://www.w3.org/2000/svg" xmlns:xlink="http://www.w3.org/1999/xlink" x="0px" y="0px"
	 width="704px" height="429px" viewBox="0 0 704 429" style="enable-background:new 0 0 704 429;" xml:space="preserve">
<rect style="fill:#DBDBDB;" width="703" height="429"/>
<rect y="398" style="fill:#1B1B1B;" width="703" height="31"/>
<g>
	<path style="fill:#FFFFFF;" d="M24.268,414.009l-8.893,4.941c-0.103,0.059-0.191,0.065-0.265,0.021
		c-0.074-0.044-0.11-0.125-0.11-0.241v-9.857c0-0.115,0.037-0.195,0.11-0.24s0.162-0.038,0.265,0.02l8.893,4.942
		c0.103,0.058,0.154,0.127,0.154,0.208C24.422,413.882,24.371,413.95,24.268,414.009z"/>
</g>
<path style="fill:#777777;" d="M265,132v144h175V132H265z M335,142h36v15h-36V142z M321,266h-35v-15h35V266z M321,157h-35v-15h35
	V157z M371,266h-36v-15h36V266z M330,230.01v-53.091l49.505,26.542L330,230.01z M420,266h-36v-15h36V266z M420,157h-36v-15h36V157z"
	/>
</svg>
