<?xml version="1.0" encoding="utf-8"?>
<!DOCTYPE svg PUBLIC "-//W3C//DTD SVG 1.1//EN" "http://www.w3.org/Graphics/SVG/1.1/DTD/svg11.dtd">
<svg version="1.1" id="Layer_1" xmlns="http://www.w3.org/2000/svg" xmlns:xlink="http://www.w3.org/1999/xlink" x="0px" y="0px"
	 width="55px" height="55px" viewBox="0 0 55 55" style="enable-background:new 0 0 55 55;" xml:space="preserve">
<g>
	<path d="M35,13.769v1.571c0,0.349,0,1.66,0,1.66s-0.724,0-1.071,0H10.786C10.438,17,9.254,17.255,9,17c-0.255-0.255,0-1.312,0-1.66
		v-1.571C9,13.421,8.745,12.255,9,12c0.254-0.254,1.438,0,1.786,0h23.143C34.276,12,35,12,35,12S35,13.421,35,13.769z M43,21.482
		v2.572c0,0.348,0.254,0.691,0,0.945c-0.254,0.255-1.009,0-1.357,0H10.786C10.438,25,9.254,25.255,9,25
		c-0.255-0.254,0-0.598,0-0.945v-2.572C9,21.135,8.745,20.254,9,20c0.254-0.255,1.438,0,1.786,0h30.856c0.349,0,1.104-0.255,1.357,0
		C43.254,20.254,43,21.135,43,21.482z M38,29.197v2.571c0,0.349,0.254,0.977,0,1.231c-0.256,0.254-1.152,0-1.5,0H10.786
		C10.438,33,9.254,33.254,9,33c-0.255-0.255,0-0.883,0-1.231v-2.571C9,28.849,8.745,28.254,9,28c0.254-0.254,1.438,0,1.786,0H36.5
		c0.348,0,1.244-0.254,1.5,0C38.254,28.254,38,28.849,38,29.197z M45,37v2.482c0,0.349,0.255,1.264,0,1.518
		c-0.255,0.256-0.438,0-0.786,0H10.786C10.438,41,9.254,41.256,9,41c-0.255-0.254,0-1.169,0-1.518v-2.571
		C9,36.563,8.745,36.254,9,36c0.254-0.256,1.438,0,1.786,0H44c0.349,0,0.745-0.256,1,0C45.255,36.254,45,36.652,45,37z"/>
</g>
</svg>
