<?xml version="1.0" encoding="utf-8"?>
<!DOCTYPE svg PUBLIC "-//W3C//DTD SVG 1.1//EN" "http://www.w3.org/Graphics/SVG/1.1/DTD/svg11.dtd">
<svg version="1.1" id="Layer_1" xmlns="http://www.w3.org/2000/svg" xmlns:xlink="http://www.w3.org/1999/xlink" x="0px" y="0px"
	 width="55px" height="55px" viewBox="0 0 55 55" style="enable-background:new 0 0 55 55;" xml:space="preserve">
<g>
	<path d="M35.214,13.769v2.571c0,0.349-0.127,0.649-0.381,0.904c-0.255,0.255-0.557,0.382-0.904,0.382H10.786
		c-0.349,0-0.65-0.127-0.904-0.382C9.627,16.989,9.5,16.688,9.5,16.34v-2.571c0-0.348,0.127-0.649,0.382-0.904
		c0.254-0.254,0.556-0.382,0.904-0.382h23.143c0.348,0,0.649,0.128,0.904,0.382C35.087,13.119,35.214,13.421,35.214,13.769z
		 M42.929,21.482v2.572c0,0.348-0.128,0.649-0.382,0.903c-0.255,0.255-0.556,0.382-0.904,0.382H10.786
		c-0.349,0-0.65-0.127-0.904-0.382C9.627,24.704,9.5,24.402,9.5,24.055v-2.572c0-0.348,0.127-0.649,0.382-0.903
		c0.254-0.255,0.556-0.382,0.904-0.382h30.856c0.349,0,0.649,0.127,0.904,0.382C42.801,20.833,42.929,21.135,42.929,21.482z
		 M37.786,29.197v2.571c0,0.349-0.128,0.649-0.382,0.904c-0.255,0.254-0.557,0.382-0.904,0.382H10.786
		c-0.349,0-0.65-0.128-0.904-0.382C9.627,32.418,9.5,32.117,9.5,31.769v-2.571c0-0.349,0.127-0.649,0.382-0.904
		c0.254-0.254,0.556-0.382,0.904-0.382H36.5c0.348,0,0.649,0.128,0.904,0.382C37.658,28.548,37.786,28.849,37.786,29.197z
		 M45.5,36.911v2.571c0,0.349-0.127,0.65-0.382,0.904c-0.255,0.255-0.556,0.382-0.904,0.382H10.786c-0.349,0-0.65-0.127-0.904-0.382
		C9.627,40.133,9.5,39.831,9.5,39.482v-2.571c0-0.348,0.127-0.649,0.382-0.903c0.254-0.255,0.556-0.382,0.904-0.382h33.428
		c0.349,0,0.649,0.127,0.904,0.382C45.373,36.262,45.5,36.563,45.5,36.911z"/>
</g>
</svg>
