<?xml version="1.0" encoding="utf-8"?>
<!DOCTYPE svg PUBLIC "-//W3C//DTD SVG 1.1//EN" "http://www.w3.org/Graphics/SVG/1.1/DTD/svg11.dtd">
<svg version="1.1" id="Layer_1" xmlns="http://www.w3.org/2000/svg" xmlns:xlink="http://www.w3.org/1999/xlink" x="0px" y="0px"
	 width="55px" height="55px" viewBox="0 0 55 55" style="enable-background:new 0 0 55 55;" xml:space="preserve">
<g>
	<path d="M46.785,15.697v24.429c0,0.884-0.314,1.641-0.943,2.27c-0.629,0.63-1.387,0.944-2.27,0.944H11.428
		c-0.883,0-1.641-0.314-2.27-0.944c-0.629-0.629-0.943-1.386-0.943-2.27V15.697c0-0.884,0.314-1.641,0.943-2.271
		c0.629-0.629,1.387-0.944,2.27-0.944h32.145c0.883,0,1.641,0.315,2.27,0.944C46.471,14.057,46.785,14.813,46.785,15.697z
		 M43.572,15.055H11.428c-0.174,0-0.324,0.063-0.451,0.19s-0.191,0.278-0.191,0.452v24.429c0,0.174,0.064,0.324,0.191,0.452
		c0.127,0.127,0.277,0.19,0.451,0.19h32.145c0.174,0,0.324-0.063,0.451-0.19c0.127-0.128,0.191-0.278,0.191-0.452V15.697
		c0-0.174-0.064-0.325-0.191-0.452S43.746,15.055,43.572,15.055z M19.947,18.751c0.75,0.75,1.125,1.66,1.125,2.731
		c0,1.072-0.375,1.982-1.125,2.732s-1.662,1.125-2.732,1.125c-1.072,0-1.982-0.375-2.732-1.125s-1.125-1.66-1.125-2.732
		c0-1.071,0.375-1.981,1.125-2.731s1.66-1.125,2.732-1.125C18.285,17.626,19.197,18.001,19.947,18.751z M41.643,29.197v9H13.357
		V34.34l6.428-6.429L23,31.126L33.285,20.84L41.643,29.197z"/>
</g>
</svg>
