<?xml version="1.0" encoding="utf-8"?>
<!DOCTYPE svg PUBLIC "-//W3C//DTD SVG 1.1//EN" "http://www.w3.org/Graphics/SVG/1.1/DTD/svg11.dtd">
<svg version="1.1" id="Layer_1" xmlns="http://www.w3.org/2000/svg" xmlns:xlink="http://www.w3.org/1999/xlink" x="0px" y="0px"
	 width="55px" height="55px" viewBox="0 0 55 55" style="enable-background:new 0 0 55 55;" xml:space="preserve">
<g>
	<path d="M47,14.215v24.429c0,0.884-0.314,1.712-0.943,2.341C45.428,41.614,44.67,42,43.787,42H11.643
		c-0.883,0-1.855-0.386-2.484-1.016C8.529,40.355,8,39.527,8,38.644V14.215c0-0.884,0.529-1.641,1.158-2.271
		C9.787,11.315,10.76,11,11.643,11h32.145c0.883,0,1.641,0.315,2.27,0.944C46.686,12.574,47,13.331,47,14.215z M43,14H13h-2
		c0,0,0,0.041,0,0.215v24.429c0,0.174-0.127,0.228,0,0.356c0.127,0.127,0.469,0,0.643,0h32.145c0.174,0,0.109,0.08,0.236-0.047
		C44.15,38.824,44,38.817,44,38.644V14l0,0H43z M20.162,17.269c0.75,0.75,1.125,1.66,1.125,2.731c0,1.072-0.375,1.982-1.125,2.732
		s-1.662,1.125-2.732,1.125c-1.072,0-1.982-0.375-2.732-1.125s-1.125-1.66-1.125-2.732c0-1.071,0.375-1.981,1.125-2.731
		s1.66-1.125,2.732-1.125C18.5,16.144,19.412,16.519,20.162,17.269z M42,27.715V37H14v-4.143l6.214-6.429l3.108,3.215l10.303-10.286
		L42,27.715z"/>
</g>
</svg>
